<svg width="28" height="28" viewBox="0 0 28 28" fill="none" xmlns="http://www.w3.org/2000/svg">
<path d="M17.0466 5.66554C16.643 5.40913 16.3774 5.04045 16.2736 4.57459C16.2303 4.38049 16.3509 4.19058 16.53 4.17104C16.7241 4.12776 16.914 4.24842 16.9335 4.42745C17.0547 4.97095 17.6482 5.34802 18.1917 5.22684C18.4634 5.16625 18.6941 5.01293 18.8449 4.77555C18.9958 4.53816 19.0366 4.26418 18.976 3.99243C18.9327 3.79832 19.0534 3.60841 19.2324 3.58887C19.4265 3.5456 19.6164 3.66626 19.6359 3.84528C19.7398 4.31114 19.656 4.75772 19.3996 5.16128C19.1432 5.56483 18.7745 5.83041 18.3087 5.93428C17.9118 5.98202 17.4264 5.90686 17.0466 5.66554ZM25.9914 4.7511L25.916 4.86979C25.847 4.92592 25.7931 4.95832 25.6917 4.96054C25.5903 4.96277 25.5191 4.91752 25.4867 4.86362C25.3269 4.69548 25.1069 4.62229 24.8804 4.61167C24.6539 4.60104 24.4296 4.6918 24.2615 4.85154C23.9252 5.17103 23.9299 5.7405 24.2494 6.07678C24.3767 6.19101 24.3661 6.41751 24.2432 6.50604C24.129 6.63339 23.9262 6.63785 23.8139 6.49987C23.4146 6.07952 23.2847 5.4972 23.4677 4.94701C23.5409 4.72694 23.6616 4.53703 23.8146 4.40102C24.097 4.11393 24.4766 3.98855 24.8821 3.97964C25.2876 3.97073 25.6501 4.13441 25.9372 4.41679C25.9783 4.50951 26.028 4.64106 25.9914 4.7511ZM22.8755 12.4347L22.7568 12.3593C22.7007 12.2903 22.6683 12.2364 22.6898 12.1501C22.6962 12.0875 22.7177 12.0012 22.7867 11.9451C22.9397 11.8091 23.0367 11.6041 23.0473 11.3776C23.0579 11.1511 22.9909 10.9419 22.8312 10.7738C22.5354 10.4526 21.981 10.4335 21.6749 10.7055C21.5758 10.8092 21.3493 10.7985 21.2607 10.6756C21.1485 10.5377 21.1527 10.3737 21.2906 10.2615C21.6808 9.90958 22.2631 9.77974 22.7594 9.9951C22.9407 10.0769 23.1306 10.1976 23.2666 10.3507C23.53 10.618 23.6553 10.9975 23.6318 11.3491C23.617 11.7396 23.4447 12.0633 23.1774 12.3266C23.102 12.4453 22.9855 12.4713 22.8755 12.4347Z" fill="#83BF4F"/>
<path d="M2.52117 15.7244C2.11762 15.468 1.85203 15.0993 1.74817 14.6334C1.70489 14.4393 1.82555 14.2494 2.00457 14.2299C2.19868 14.1866 2.38859 14.3073 2.40813 14.4863C2.52931 15.0298 3.12278 15.4069 3.66628 15.2857C3.93803 15.2251 4.16873 15.0718 4.31956 14.8344C4.47039 14.597 4.51118 14.323 4.45059 14.0513C4.40731 13.8572 4.52797 13.6673 4.707 13.6477C4.90111 13.6044 5.09101 13.7251 5.11055 13.9041C5.21442 14.37 5.13061 14.8166 4.8742 15.2201C4.61779 15.6237 4.24912 15.8893 3.78326 15.9931C3.38639 16.0409 2.90099 15.9657 2.52117 15.7244ZM11.466 14.8099L11.3906 14.9286C11.3216 14.9848 11.2677 15.0172 11.1663 15.0194C11.0649 15.0216 10.9937 14.9764 10.9613 14.9225C10.8016 14.7543 10.5815 14.6811 10.355 14.6705C10.1285 14.6599 9.9042 14.7506 9.73606 14.9104C9.39978 15.2299 9.4045 15.7993 9.72398 16.1356C9.85133 16.2499 9.84071 16.4764 9.71782 16.5649C9.60358 16.6922 9.40082 16.6967 9.28855 16.5587C8.88919 16.1384 8.75936 15.556 8.94232 15.0059C9.01551 14.7858 9.13617 14.5959 9.28923 14.4599C9.5716 14.1728 9.95116 14.0474 10.3567 14.0385C10.7622 14.0296 11.1247 14.1932 11.4118 14.4756C11.4529 14.5683 11.5026 14.6999 11.466 14.8099ZM8.35009 22.4935L8.23139 22.4181C8.17526 22.3491 8.14286 22.2952 8.16437 22.2089C8.1708 22.1464 8.19231 22.0601 8.2613 22.0039C8.41436 21.8679 8.51128 21.6629 8.52191 21.4364C8.53253 21.2099 8.46552 21.0007 8.30577 20.8326C8.01002 20.5114 7.45564 20.4924 7.14952 20.7644C7.05037 20.868 6.82387 20.8574 6.73534 20.7345C6.62308 20.5965 6.62728 20.4326 6.76525 20.3203C7.15543 19.9684 7.73776 19.8386 8.23404 20.0539C8.41529 20.1358 8.6052 20.2564 8.74121 20.4095C9.00456 20.6768 9.12994 21.0564 9.10646 21.408C9.09163 21.7984 8.9193 22.1221 8.652 22.3855C8.57659 22.5042 8.46012 22.5301 8.35009 22.4935Z" fill="#83BF4F"/>
<path d="M18.6254 25.0054C18.1892 25.2013 17.7353 25.2202 17.2891 25.0506C17.1032 24.9799 17.0111 24.7746 17.0932 24.6144C17.1639 24.4285 17.3692 24.3363 17.5294 24.4185C18.0499 24.6164 18.6913 24.3284 18.8892 23.8079C18.9882 23.5476 18.9871 23.2706 18.8719 23.014C18.7566 22.7575 18.5503 22.5727 18.2901 22.4737C18.1042 22.403 18.012 22.1978 18.0942 22.0375C18.1649 21.8517 18.3701 21.7595 18.5304 21.8417C18.9765 22.0113 19.3033 22.327 19.4991 22.7632C19.695 23.1993 19.7139 23.6533 19.5443 24.0995C19.3658 24.4571 19.0359 24.8211 18.6254 25.0054ZM22.7839 17.0334L22.8415 17.1617C22.8504 17.2502 22.8478 17.313 22.7938 17.3989C22.7399 17.4848 22.6629 17.5193 22.6001 17.5167C22.3718 17.5576 22.1896 17.7011 22.0561 17.8843C21.9226 18.0676 21.875 18.3048 21.9158 18.5331C21.9975 18.9897 22.4756 19.2991 22.9322 19.2174C23.0977 19.1739 23.281 19.3074 23.2873 19.4588C23.3307 19.6242 23.2229 19.796 23.0459 19.8138C22.4752 19.916 21.9175 19.7039 21.5588 19.2484C21.4153 19.0662 21.3231 18.861 21.2938 18.6583C21.2094 18.2646 21.3136 17.8786 21.5293 17.5351C21.745 17.1916 22.0811 16.979 22.4749 16.8947C22.5749 16.9114 22.7121 16.9423 22.7839 17.0334ZM27.485 23.8631L27.3567 23.9207C27.2683 23.9296 27.2054 23.927 27.1452 23.8616C27.0965 23.8218 27.0363 23.7563 27.0274 23.6679C26.998 23.4652 26.8802 23.2715 26.6969 23.138C26.5136 23.0045 26.3021 22.9453 26.0738 22.9862C25.6428 23.0564 25.3219 23.5088 25.3806 23.9141C25.4125 24.0539 25.279 24.2372 25.1277 24.2435C24.9507 24.2613 24.8161 24.1676 24.7983 23.9906C24.7192 23.4712 24.9312 22.9135 25.3841 22.6176C25.5522 22.5113 25.7575 22.4191 25.9601 22.3898C26.3282 22.317 26.7141 22.4211 26.9948 22.6342C27.3127 22.8614 27.4881 23.1835 27.5609 23.5516C27.6185 23.6798 27.5761 23.7914 27.485 23.8631Z" fill="#83BF4F"/>
</svg>
