<svg width="805" height="805" viewBox="0 0 805 805" fill="none" xmlns="http://www.w3.org/2000/svg">
<circle cx="402.5" cy="402.5" r="402.5" fill="#FFEBB9"/>
<ellipse cx="402.5" cy="402.5" rx="344.5" ry="345.5" stroke="#B34B00" stroke-width="8" stroke-linejoin="round" stroke-dasharray="36 36"/>
<path d="M285.658 367.269H279.117C278.931 366.197 278.587 365.246 278.086 364.419C277.584 363.579 276.96 362.868 276.214 362.285C275.468 361.702 274.617 361.265 273.661 360.974C272.717 360.67 271.697 360.519 270.601 360.519C268.654 360.519 266.928 361.008 265.424 361.988C263.92 362.955 262.743 364.378 261.892 366.255C261.041 368.12 260.615 370.399 260.615 373.093C260.615 375.832 261.041 378.141 261.892 380.018C262.755 381.883 263.932 383.294 265.424 384.25C266.928 385.194 268.648 385.666 270.583 385.666C271.656 385.666 272.658 385.526 273.591 385.247C274.535 384.955 275.381 384.53 276.127 383.97C276.885 383.41 277.52 382.722 278.033 381.906C278.558 381.09 278.919 380.158 279.117 379.108L285.658 379.143C285.413 380.845 284.882 382.443 284.066 383.935C283.262 385.427 282.207 386.745 280.901 387.887C279.595 389.018 278.068 389.904 276.319 390.545C274.57 391.175 272.629 391.49 270.496 391.49C267.348 391.49 264.538 390.761 262.067 389.304C259.595 387.846 257.648 385.742 256.226 382.991C254.803 380.239 254.092 376.94 254.092 373.093C254.092 369.234 254.809 365.934 256.243 363.194C257.677 360.443 259.63 358.339 262.102 356.881C264.573 355.424 267.371 354.695 270.496 354.695C272.489 354.695 274.343 354.975 276.057 355.535C277.771 356.094 279.298 356.916 280.639 358.001C281.979 359.073 283.081 360.391 283.944 361.953C284.818 363.503 285.39 365.276 285.658 367.269ZM297.65 375.261V391H291.319V355.185H297.51V368.703H297.825C298.454 367.187 299.428 365.992 300.745 365.118C302.074 364.232 303.765 363.789 305.817 363.789C307.682 363.789 309.308 364.18 310.696 364.961C312.083 365.742 313.156 366.884 313.914 368.388C314.683 369.892 315.068 371.728 315.068 373.897V391H308.737V374.876C308.737 373.069 308.271 371.664 307.338 370.662C306.417 369.647 305.123 369.14 303.456 369.14C302.337 369.14 301.334 369.385 300.448 369.875C299.574 370.353 298.886 371.046 298.384 371.956C297.895 372.865 297.65 373.967 297.65 375.261ZM333.238 391.525C330.614 391.525 328.341 390.948 326.417 389.793C324.494 388.639 323.001 387.024 321.94 384.949C320.891 382.874 320.367 380.449 320.367 377.674C320.367 374.9 320.891 372.469 321.94 370.382C323.001 368.295 324.494 366.675 326.417 365.52C328.341 364.366 330.614 363.789 333.238 363.789C335.861 363.789 338.134 364.366 340.058 365.52C341.981 366.675 343.468 368.295 344.517 370.382C345.578 372.469 346.109 374.9 346.109 377.674C346.109 380.449 345.578 382.874 344.517 384.949C343.468 387.024 341.981 388.639 340.058 389.793C338.134 390.948 335.861 391.525 333.238 391.525ZM333.273 386.453C334.695 386.453 335.884 386.063 336.84 385.282C337.796 384.489 338.507 383.428 338.974 382.099C339.452 380.77 339.691 379.289 339.691 377.657C339.691 376.013 339.452 374.527 338.974 373.197C338.507 371.857 337.796 370.79 336.84 369.997C335.884 369.204 334.695 368.808 333.273 368.808C331.815 368.808 330.603 369.204 329.635 369.997C328.679 370.79 327.962 371.857 327.484 373.197C327.018 374.527 326.785 376.013 326.785 377.657C326.785 379.289 327.018 380.77 327.484 382.099C327.962 383.428 328.679 384.489 329.635 385.282C330.603 386.063 331.815 386.453 333.273 386.453ZM363.198 391.525C360.575 391.525 358.302 390.948 356.378 389.793C354.455 388.639 352.962 387.024 351.901 384.949C350.852 382.874 350.327 380.449 350.327 377.674C350.327 374.9 350.852 372.469 351.901 370.382C352.962 368.295 354.455 366.675 356.378 365.52C358.302 364.366 360.575 363.789 363.198 363.789C365.822 363.789 368.095 364.366 370.019 365.52C371.942 366.675 373.429 368.295 374.478 370.382C375.539 372.469 376.069 374.9 376.069 377.674C376.069 380.449 375.539 382.874 374.478 384.949C373.429 387.024 371.942 388.639 370.019 389.793C368.095 390.948 365.822 391.525 363.198 391.525ZM363.233 386.453C364.656 386.453 365.845 386.063 366.801 385.282C367.757 384.489 368.468 383.428 368.934 382.099C369.412 380.77 369.651 379.289 369.651 377.657C369.651 376.013 369.412 374.527 368.934 373.197C368.468 371.857 367.757 370.79 366.801 369.997C365.845 369.204 364.656 368.808 363.233 368.808C361.776 368.808 360.564 369.204 359.596 369.997C358.64 370.79 357.923 371.857 357.445 373.197C356.979 374.527 356.745 376.013 356.745 377.657C356.745 379.289 356.979 380.77 357.445 382.099C357.923 383.428 358.64 384.489 359.596 385.282C360.564 386.063 361.776 386.453 363.233 386.453ZM402.673 371.239L396.902 371.868C396.739 371.285 396.453 370.738 396.045 370.225C395.648 369.712 395.112 369.298 394.436 368.983C393.76 368.668 392.932 368.511 391.953 368.511C390.635 368.511 389.528 368.796 388.63 369.368C387.744 369.939 387.307 370.679 387.318 371.589C387.307 372.37 387.592 373.005 388.175 373.495C388.77 373.984 389.749 374.387 391.113 374.701L395.695 375.681C398.237 376.229 400.125 377.097 401.361 378.286C402.609 379.476 403.238 381.032 403.25 382.956C403.238 384.646 402.743 386.138 401.763 387.432C400.796 388.715 399.449 389.718 397.724 390.44C395.998 391.163 394.016 391.525 391.778 391.525C388.49 391.525 385.844 390.837 383.838 389.461C381.833 388.074 380.638 386.144 380.253 383.673L386.427 383.078C386.706 384.291 387.301 385.206 388.21 385.824C389.12 386.442 390.303 386.75 391.76 386.75C393.264 386.75 394.471 386.442 395.38 385.824C396.301 385.206 396.762 384.442 396.762 383.533C396.762 382.763 396.465 382.128 395.87 381.627C395.287 381.125 394.378 380.741 393.142 380.472L388.56 379.511C385.984 378.974 384.077 378.071 382.842 376.8C381.606 375.518 380.994 373.897 381.005 371.938C380.994 370.283 381.443 368.849 382.352 367.636C383.273 366.412 384.55 365.468 386.182 364.803C387.826 364.127 389.72 363.789 391.865 363.789C395.013 363.789 397.49 364.459 399.298 365.8C401.116 367.141 402.241 368.954 402.673 371.239ZM420.362 391.525C417.668 391.525 415.343 390.965 413.384 389.846C411.437 388.715 409.939 387.118 408.89 385.054C407.84 382.979 407.316 380.536 407.316 377.727C407.316 374.964 407.84 372.539 408.89 370.452C409.951 368.353 411.431 366.721 413.331 365.555C415.232 364.378 417.464 363.789 420.029 363.789C421.685 363.789 423.247 364.057 424.716 364.593C426.197 365.118 427.502 365.934 428.633 367.042C429.776 368.149 430.674 369.56 431.326 371.274C431.979 372.976 432.306 375.005 432.306 377.36V379.301H410.289V375.034H426.237C426.226 373.821 425.963 372.743 425.451 371.798C424.938 370.842 424.221 370.09 423.3 369.543C422.39 368.995 421.329 368.721 420.117 368.721C418.823 368.721 417.686 369.035 416.707 369.665C415.727 370.283 414.964 371.099 414.416 372.113C413.879 373.116 413.605 374.218 413.594 375.418V379.143C413.594 380.706 413.879 382.046 414.451 383.165C415.022 384.273 415.821 385.124 416.847 385.719C417.872 386.302 419.073 386.593 420.449 386.593C421.37 386.593 422.204 386.465 422.95 386.208C423.696 385.94 424.343 385.55 424.891 385.037C425.439 384.524 425.853 383.888 426.133 383.131L432.043 383.795C431.67 385.357 430.959 386.721 429.91 387.887C428.872 389.041 427.543 389.939 425.923 390.58C424.302 391.21 422.448 391.525 420.362 391.525ZM453.811 401.073C452.949 401.073 452.15 401.003 451.415 400.863C450.693 400.735 450.116 400.583 449.684 400.408L451.153 395.477C452.074 395.745 452.896 395.873 453.619 395.862C454.342 395.85 454.977 395.623 455.525 395.18C456.085 394.748 456.557 394.025 456.942 393.011L457.484 391.56L447.743 364.139H454.458L460.649 384.425H460.929L467.137 364.139H473.87L463.115 394.253C462.613 395.675 461.949 396.893 461.121 397.908C460.293 398.934 459.279 399.715 458.078 400.251C456.889 400.799 455.467 401.073 453.811 401.073ZM489.053 391.525C486.43 391.525 484.157 390.948 482.233 389.793C480.31 388.639 478.817 387.024 477.756 384.949C476.707 382.874 476.183 380.449 476.183 377.674C476.183 374.9 476.707 372.469 477.756 370.382C478.817 368.295 480.31 366.675 482.233 365.52C484.157 364.366 486.43 363.789 489.053 363.789C491.677 363.789 493.95 364.366 495.874 365.52C497.797 366.675 499.284 368.295 500.333 370.382C501.394 372.469 501.924 374.9 501.924 377.674C501.924 380.449 501.394 382.874 500.333 384.949C499.284 387.024 497.797 388.639 495.874 389.793C493.95 390.948 491.677 391.525 489.053 391.525ZM489.088 386.453C490.511 386.453 491.7 386.063 492.656 385.282C493.612 384.489 494.323 383.428 494.789 382.099C495.267 380.77 495.506 379.289 495.506 377.657C495.506 376.013 495.267 374.527 494.789 373.197C494.323 371.857 493.612 370.79 492.656 369.997C491.7 369.204 490.511 368.808 489.088 368.808C487.631 368.808 486.419 369.204 485.451 369.997C484.495 370.79 483.778 371.857 483.3 373.197C482.834 374.527 482.601 376.013 482.601 377.657C482.601 379.289 482.834 380.77 483.3 382.099C483.778 383.428 484.495 384.489 485.451 385.282C486.419 386.063 487.631 386.453 489.088 386.453ZM524.418 379.703V364.139H530.749V391H524.61V386.226H524.331C523.724 387.73 522.728 388.96 521.34 389.916C519.965 390.872 518.268 391.35 516.251 391.35C514.491 391.35 512.934 390.959 511.582 390.178C510.241 389.385 509.192 388.237 508.434 386.733C507.676 385.217 507.298 383.387 507.298 381.242V364.139H513.628V380.263C513.628 381.965 514.094 383.317 515.027 384.32C515.96 385.322 517.184 385.824 518.7 385.824C519.632 385.824 520.536 385.596 521.41 385.142C522.285 384.687 523.002 384.011 523.561 383.113C524.132 382.204 524.418 381.067 524.418 379.703ZM537.259 391V364.139H543.397V368.616H543.677C544.166 367.065 545.006 365.87 546.195 365.031C547.396 364.18 548.765 363.754 550.304 363.754C550.654 363.754 551.045 363.772 551.476 363.807C551.919 363.83 552.286 363.871 552.578 363.929V369.752C552.31 369.659 551.884 369.577 551.301 369.508C550.73 369.426 550.176 369.385 549.64 369.385C548.486 369.385 547.448 369.636 546.527 370.137C545.618 370.627 544.901 371.309 544.376 372.183C543.851 373.058 543.589 374.066 543.589 375.209V391H537.259ZM278.287 461.073V424.139H284.512V428.581H284.879C285.206 427.928 285.666 427.234 286.261 426.5C286.856 425.754 287.66 425.118 288.674 424.593C289.689 424.057 290.983 423.789 292.557 423.789C294.632 423.789 296.503 424.32 298.17 425.38C299.849 426.43 301.178 427.986 302.157 430.05C303.148 432.102 303.644 434.62 303.644 437.604C303.644 440.554 303.16 443.061 302.192 445.124C301.225 447.188 299.907 448.762 298.24 449.846C296.573 450.93 294.684 451.472 292.574 451.472C291.035 451.472 289.759 451.216 288.744 450.703C287.73 450.19 286.914 449.572 286.296 448.849C285.69 448.115 285.218 447.421 284.879 446.768H284.617V461.073H278.287ZM284.495 437.569C284.495 439.307 284.74 440.828 285.229 442.134C285.731 443.439 286.448 444.46 287.38 445.194C288.325 445.917 289.467 446.278 290.808 446.278C292.207 446.278 293.379 445.905 294.323 445.159C295.267 444.401 295.978 443.37 296.456 442.064C296.946 440.746 297.191 439.248 297.191 437.569C297.191 435.902 296.952 434.422 296.474 433.128C295.996 431.833 295.285 430.819 294.34 430.085C293.396 429.35 292.219 428.983 290.808 428.983C289.455 428.983 288.307 429.338 287.363 430.05C286.418 430.761 285.701 431.758 285.212 433.04C284.734 434.323 284.495 435.832 284.495 437.569ZM309.065 451V424.139H315.396V451H309.065ZM312.248 420.326C311.245 420.326 310.382 419.994 309.66 419.33C308.937 418.653 308.575 417.843 308.575 416.899C308.575 415.943 308.937 415.133 309.66 414.468C310.382 413.792 311.245 413.454 312.248 413.454C313.262 413.454 314.125 413.792 314.836 414.468C315.559 415.133 315.92 415.943 315.92 416.899C315.92 417.843 315.559 418.653 314.836 419.33C314.125 419.994 313.262 420.326 312.248 420.326ZM321.556 451V446.978L335.406 429.612V429.385H322.01V424.139H343.153V428.458L329.967 445.526V445.754H343.608V451H321.556ZM349.208 451V446.978L363.059 429.612V429.385H349.663V424.139H370.806V428.458L357.62 445.526V445.754H371.26V451H349.208ZM384.94 451.542C383.238 451.542 381.705 451.239 380.341 450.633C378.988 450.015 377.916 449.105 377.123 447.905C376.342 446.704 375.951 445.223 375.951 443.463C375.951 441.947 376.231 440.694 376.791 439.703C377.35 438.712 378.114 437.919 379.082 437.325C380.049 436.73 381.139 436.281 382.352 435.978C383.576 435.663 384.841 435.436 386.147 435.296C387.721 435.133 388.997 434.987 389.977 434.859C390.956 434.719 391.667 434.509 392.11 434.229C392.565 433.938 392.792 433.489 392.792 432.883V432.778C392.792 431.46 392.402 430.44 391.62 429.717C390.839 428.995 389.714 428.633 388.245 428.633C386.695 428.633 385.465 428.971 384.555 429.647C383.658 430.324 383.051 431.122 382.737 432.043L376.826 431.204C377.292 429.572 378.062 428.208 379.134 427.112C380.207 426.004 381.518 425.176 383.069 424.628C384.619 424.069 386.333 423.789 388.21 423.789C389.504 423.789 390.793 423.941 392.075 424.244C393.358 424.547 394.529 425.048 395.59 425.748C396.651 426.436 397.502 427.374 398.143 428.563C398.796 429.752 399.123 431.239 399.123 433.023V451H393.037V447.31H392.827C392.442 448.056 391.9 448.756 391.201 449.409C390.513 450.05 389.644 450.569 388.595 450.965C387.557 451.35 386.339 451.542 384.94 451.542ZM386.584 446.89C387.855 446.89 388.956 446.64 389.889 446.138C390.822 445.625 391.539 444.949 392.04 444.11C392.553 443.27 392.81 442.355 392.81 441.364V438.199C392.611 438.362 392.273 438.514 391.795 438.654C391.329 438.794 390.804 438.916 390.221 439.021C389.638 439.126 389.061 439.219 388.49 439.301C387.919 439.382 387.423 439.452 387.004 439.511C386.059 439.639 385.214 439.849 384.468 440.14C383.722 440.432 383.133 440.84 382.702 441.364C382.27 441.877 382.055 442.542 382.055 443.358C382.055 444.524 382.48 445.404 383.331 445.999C384.182 446.593 385.267 446.89 386.584 446.89ZM417.983 451V415.185H424.314V428.581H424.576C424.903 427.928 425.363 427.234 425.958 426.5C426.552 425.754 427.357 425.118 428.371 424.593C429.385 424.057 430.679 423.789 432.253 423.789C434.328 423.789 436.2 424.32 437.867 425.38C439.546 426.43 440.875 427.986 441.854 430.05C442.845 432.102 443.34 434.62 443.34 437.604C443.34 440.554 442.857 443.061 441.889 445.124C440.921 447.188 439.604 448.762 437.937 449.846C436.27 450.93 434.381 451.472 432.271 451.472C430.732 451.472 429.455 451.216 428.441 450.703C427.427 450.19 426.611 449.572 425.993 448.849C425.386 448.115 424.914 447.421 424.576 446.768H424.209V451H417.983ZM424.191 437.569C424.191 439.307 424.436 440.828 424.926 442.134C425.427 443.439 426.144 444.46 427.077 445.194C428.021 445.917 429.164 446.278 430.504 446.278C431.903 446.278 433.075 445.905 434.02 445.159C434.964 444.401 435.675 443.37 436.153 442.064C436.643 440.746 436.887 439.248 436.887 437.569C436.887 435.902 436.648 434.422 436.17 433.128C435.693 431.833 434.981 430.819 434.037 430.085C433.093 429.35 431.915 428.983 430.504 428.983C429.152 428.983 428.004 429.338 427.059 430.05C426.115 430.761 425.398 431.758 424.908 433.04C424.43 434.323 424.191 435.832 424.191 437.569ZM456.452 451.542C454.75 451.542 453.217 451.239 451.853 450.633C450.5 450.015 449.428 449.105 448.635 447.905C447.854 446.704 447.463 445.223 447.463 443.463C447.463 441.947 447.743 440.694 448.303 439.703C448.862 438.712 449.626 437.919 450.594 437.325C451.561 436.73 452.651 436.281 453.864 435.978C455.088 435.663 456.353 435.436 457.659 435.296C459.232 435.133 460.509 434.987 461.488 434.859C462.468 434.719 463.179 434.509 463.622 434.229C464.077 433.938 464.304 433.489 464.304 432.883V432.778C464.304 431.46 463.913 430.44 463.132 429.717C462.351 428.995 461.226 428.633 459.757 428.633C458.207 428.633 456.977 428.971 456.067 429.647C455.169 430.324 454.563 431.122 454.248 432.043L448.338 431.204C448.804 429.572 449.573 428.208 450.646 427.112C451.719 426.004 453.03 425.176 454.581 424.628C456.131 424.069 457.845 423.789 459.722 423.789C461.016 423.789 462.305 423.941 463.587 424.244C464.869 424.547 466.041 425.048 467.102 425.748C468.163 426.436 469.014 427.374 469.655 428.563C470.308 429.752 470.635 431.239 470.635 433.023V451H464.549V447.31H464.339C463.954 448.056 463.412 448.756 462.713 449.409C462.025 450.05 461.156 450.569 460.107 450.965C459.069 451.35 457.851 451.542 456.452 451.542ZM458.096 446.89C459.367 446.89 460.468 446.64 461.401 446.138C462.334 445.625 463.051 444.949 463.552 444.11C464.065 443.27 464.321 442.355 464.321 441.364V438.199C464.123 438.362 463.785 438.514 463.307 438.654C462.841 438.794 462.316 438.916 461.733 439.021C461.15 439.126 460.573 439.219 460.002 439.301C459.431 439.382 458.935 439.452 458.515 439.511C457.571 439.639 456.726 439.849 455.98 440.14C455.234 440.432 454.645 440.84 454.214 441.364C453.782 441.877 453.566 442.542 453.566 443.358C453.566 444.524 453.992 445.404 454.843 445.999C455.694 446.593 456.778 446.89 458.096 446.89ZM498.23 431.239L492.459 431.868C492.296 431.285 492.01 430.738 491.602 430.225C491.206 429.712 490.67 429.298 489.993 428.983C489.317 428.668 488.49 428.511 487.51 428.511C486.193 428.511 485.085 428.796 484.188 429.368C483.301 429.939 482.864 430.679 482.876 431.589C482.864 432.37 483.15 433.005 483.733 433.495C484.327 433.984 485.307 434.387 486.671 434.701L491.253 435.681C493.794 436.229 495.683 437.097 496.919 438.286C498.166 439.476 498.796 441.032 498.807 442.956C498.796 444.646 498.3 446.138 497.321 447.432C496.353 448.715 495.007 449.718 493.281 450.44C491.556 451.163 489.574 451.525 487.335 451.525C484.048 451.525 481.401 450.837 479.396 449.461C477.391 448.074 476.196 446.144 475.811 443.673L481.984 443.078C482.264 444.291 482.858 445.206 483.768 445.824C484.677 446.442 485.861 446.75 487.318 446.75C488.822 446.75 490.028 446.442 490.938 445.824C491.859 445.206 492.319 444.442 492.319 443.533C492.319 442.763 492.022 442.128 491.427 441.627C490.845 441.125 489.935 440.741 488.699 440.472L484.118 439.511C481.541 438.974 479.635 438.071 478.399 436.8C477.163 435.518 476.551 433.897 476.563 431.938C476.551 430.283 477 428.849 477.909 427.636C478.83 426.412 480.107 425.468 481.739 424.803C483.383 424.127 485.278 423.789 487.423 423.789C490.571 423.789 493.048 424.459 494.855 425.8C496.674 427.141 497.799 428.954 498.23 431.239ZM515.919 451.525C513.226 451.525 510.9 450.965 508.941 449.846C506.994 448.715 505.496 447.118 504.447 445.054C503.398 442.979 502.873 440.536 502.873 437.727C502.873 434.964 503.398 432.539 504.447 430.452C505.508 428.353 506.989 426.721 508.889 425.555C510.789 424.378 513.022 423.789 515.587 423.789C517.242 423.789 518.805 424.057 520.274 424.593C521.754 425.118 523.06 425.934 524.191 427.042C525.333 428.149 526.231 429.56 526.884 431.274C527.537 432.976 527.863 435.005 527.863 437.36V439.301H505.846V435.034H521.795C521.783 433.821 521.521 432.743 521.008 431.798C520.495 430.842 519.778 430.09 518.857 429.543C517.948 428.995 516.887 428.721 515.674 428.721C514.38 428.721 513.243 429.035 512.264 429.665C511.285 430.283 510.521 431.099 509.973 432.113C509.437 433.116 509.163 434.218 509.151 435.418V439.143C509.151 440.706 509.437 442.046 510.008 443.165C510.579 444.273 511.378 445.124 512.404 445.719C513.43 446.302 514.631 446.593 516.006 446.593C516.928 446.593 517.761 446.465 518.507 446.208C519.253 445.94 519.9 445.55 520.448 445.037C520.996 444.524 521.41 443.888 521.69 443.131L527.601 443.795C527.228 445.357 526.517 446.721 525.467 447.887C524.43 449.041 523.101 449.939 521.48 450.58C519.86 451.21 518.006 451.525 515.919 451.525Z" fill="#B24B00"/>
</svg>
