<svg width="22" height="23" viewBox="0 0 22 23" fill="none" xmlns="http://www.w3.org/2000/svg">
<path d="M4.17816 2.77017C4.53044 3.19551 4.47122 3.8259 4.04588 4.17818C3.62054 4.53046 2.99015 4.47124 2.63787 4.0459C2.28558 3.62056 2.34481 2.99017 2.77015 2.63789C3.19549 2.2856 3.82587 2.34483 4.17816 2.77017ZM3.0644 3.69263C3.22158 3.8824 3.50284 3.90883 3.69261 3.75165C3.88238 3.59447 3.9088 3.31321 3.75163 3.12344C3.59445 2.93367 3.31319 2.90724 3.12342 3.06442C2.93365 3.2216 2.90722 3.50286 3.0644 3.69263Z" fill="#080808" fill-opacity="0.85"/>
<path d="M10.1782 10.7702C10.5304 11.1955 10.4712 11.8259 10.0459 12.1782C9.62054 12.5305 8.99015 12.4712 8.63787 12.0459C8.28558 11.6206 8.34481 10.9902 8.77015 10.6379C9.19549 10.2856 9.82587 10.3448 10.1782 10.7702ZM9.0644 11.6926C9.22158 11.8824 9.50284 11.9088 9.69261 11.7516C9.88238 11.5945 9.9088 11.3132 9.75163 11.1234C9.59445 10.9337 9.31319 10.9072 9.12342 11.0644C8.93365 11.2216 8.90722 11.5029 9.0644 11.6926Z" fill="#080808" fill-opacity="0.85"/>
<path d="M2.17816 11.7702C2.53044 12.1955 2.47122 12.8259 2.04588 13.1782C1.62054 13.5305 0.990153 13.4712 0.637868 13.0459C0.285583 12.6206 0.344806 11.9902 0.770146 11.6379C1.19549 11.2856 1.82587 11.3448 2.17816 11.7702ZM1.0644 12.6926C1.22158 12.8824 1.50284 12.9088 1.69261 12.7516C1.88238 12.5945 1.9088 12.3132 1.75163 12.1234C1.59445 11.9337 1.31319 11.9072 1.12342 12.0644C0.933646 12.2216 0.907223 12.5029 1.0644 12.6926Z" fill="#080808" fill-opacity="0.85"/>
<path d="M6.17816 18.7702C6.53044 19.1955 6.47122 19.8259 6.04588 20.1782C5.62054 20.5305 4.99015 20.4712 4.63787 20.0459C4.28558 19.6206 4.34481 18.9902 4.77015 18.6379C5.19549 18.2856 5.82587 18.3448 6.17816 18.7702ZM5.0644 19.6926C5.22158 19.8824 5.50284 19.9088 5.69261 19.7516C5.88238 19.5945 5.9088 19.3132 5.75163 19.1234C5.59445 18.9337 5.31319 18.9072 5.12342 19.0644C4.93365 19.2216 4.90722 19.5029 5.0644 19.6926Z" fill="#080808" fill-opacity="0.85"/>
<path d="M16.1782 20.7702C16.5304 21.1955 16.4712 21.8259 16.0459 22.1782C15.6205 22.5305 14.9902 22.4712 14.6379 22.0459C14.2856 21.6206 14.3448 20.9902 14.7701 20.6379C15.1955 20.2856 15.8259 20.3448 16.1782 20.7702ZM15.0644 21.6926C15.2216 21.8824 15.5028 21.9088 15.6926 21.7516C15.8824 21.5945 15.9088 21.3132 15.7516 21.1234C15.5944 20.9337 15.3132 20.9072 15.1234 21.0644C14.9336 21.2216 14.9072 21.5029 15.0644 21.6926Z" fill="#080808" fill-opacity="0.85"/>
<path d="M16.1782 2.77017C16.5304 3.19551 16.4712 3.8259 16.0459 4.17818C15.6205 4.53046 14.9902 4.47124 14.6379 4.0459C14.2856 3.62056 14.3448 2.99017 14.7701 2.63789C15.1955 2.2856 15.8259 2.34483 16.1782 2.77017ZM15.0644 3.69263C15.2216 3.8824 15.5028 3.90883 15.6926 3.75165C15.8824 3.59447 15.9088 3.31321 15.7516 3.12344C15.5944 2.93367 15.3132 2.90724 15.1234 3.06442C14.9336 3.2216 14.9072 3.50286 15.0644 3.69263Z" fill="#080808" fill-opacity="0.85"/>
<path d="M10.1782 0.770166C10.5304 1.19551 10.4712 1.8259 10.0459 2.17818C9.62054 2.53046 8.99015 2.47124 8.63787 2.0459C8.28558 1.62056 8.34481 0.990174 8.77015 0.637889C9.19549 0.285604 9.82587 0.344827 10.1782 0.770166ZM9.0644 1.69263C9.22158 1.8824 9.50284 1.90883 9.69261 1.75165C9.88238 1.59447 9.9088 1.31321 9.75163 1.12344C9.59445 0.933666 9.31319 0.907243 9.12342 1.06442C8.93365 1.2216 8.90722 1.50286 9.0644 1.69263Z" fill="#080808" fill-opacity="0.85"/>
<path d="M21.1782 3.77017C21.5304 4.19551 21.4712 4.8259 21.0459 5.17818C20.6205 5.53046 19.9902 5.47124 19.6379 5.0459C19.2856 4.62056 19.3448 3.99017 19.7701 3.63789C20.1955 3.2856 20.8259 3.34483 21.1782 3.77017ZM20.0644 4.69263C20.2216 4.8824 20.5028 4.90883 20.6926 4.75165C20.8824 4.59447 20.9088 4.31321 20.7516 4.12344C20.5944 3.93367 20.3132 3.90724 20.1234 4.06442C19.9336 4.2216 19.9072 4.50286 20.0644 4.69263Z" fill="#080808" fill-opacity="0.85"/>
<path d="M19.1782 16.7702C19.5304 17.1955 19.4712 17.8259 19.0459 18.1782C18.6205 18.5305 17.9902 18.4712 17.6379 18.0459C17.2856 17.6206 17.3448 16.9902 17.7701 16.6379C18.1955 16.2856 18.8259 16.3448 19.1782 16.7702ZM18.0644 17.6926C18.2216 17.8824 18.5028 17.9088 18.6926 17.7516C18.8824 17.5945 18.9088 17.3132 18.7516 17.1234C18.5944 16.9337 18.3132 16.9072 18.1234 17.0644C17.9336 17.2216 17.9072 17.5029 18.0644 17.6926Z" fill="#080808" fill-opacity="0.85"/>
<path d="M14.1782 8.77017C14.5304 9.19551 14.4712 9.8259 14.0459 10.1782C13.6205 10.5305 12.9902 10.4712 12.6379 10.0459C12.2856 9.62056 12.3448 8.99017 12.7701 8.63789C13.1955 8.2856 13.8259 8.34483 14.1782 8.77017ZM13.0644 9.69263C13.2216 9.8824 13.5028 9.90883 13.6926 9.75165C13.8824 9.59447 13.9088 9.31321 13.7516 9.12344C13.5944 8.93367 13.3132 8.90724 13.1234 9.06442C12.9336 9.2216 12.9072 9.50286 13.0644 9.69263Z" fill="#080808" fill-opacity="0.85"/>
</svg>
