<svg width="28" height="27" viewBox="0 0 28 27" fill="none" xmlns="http://www.w3.org/2000/svg">
<path d="M8.47023 5.77687C8.85826 6.87732 8.2485 8.05829 7.0844 8.43405C5.9203 8.80981 4.67305 8.21933 4.31274 7.11888C3.9247 6.01843 4.53447 4.83746 5.69857 4.4617C6.83495 4.08594 8.0822 4.67642 8.47023 5.77687ZM11.9348 5.99159C12.1565 6.6626 11.7962 7.36044 11.1033 7.602C10.4104 7.81672 9.66205 7.4678 9.44031 6.7968C9.21858 6.12579 9.5789 5.42795 10.2718 5.18639C10.937 4.97166 11.6854 5.32059 11.9348 5.99159ZM6.22518 1.16036C6.53007 2.04608 6.03117 3.03917 5.0888 3.33441C4.14644 3.62965 3.12092 3.14653 2.81604 2.2608C2.51116 1.37508 3.01006 0.381991 3.95242 0.0867487C4.89479 -0.208493 5.9203 0.27463 6.22518 1.16036ZM3.61982 8.67561C3.95242 9.58818 3.4258 10.6081 2.45572 10.9033C1.48564 11.2254 0.432409 10.7155 0.0998096 9.77606C-0.23279 8.86349 0.293826 7.84356 1.26391 7.54832C2.23399 7.25308 3.28722 7.76304 3.61982 8.67561Z" fill="#B21725"/>
<path d="M21.125 10.2834C22.2917 10.3056 23.1841 11.2905 23.1281 12.5125C23.0721 13.7344 22.082 14.6957 20.9251 14.6475C19.7584 14.6254 18.866 13.6404 18.922 12.4185C18.9683 11.2225 19.9584 10.2612 21.125 10.2834ZM22.5402 7.11374C23.2463 7.1412 23.7737 7.72321 23.7571 8.45683C23.7154 9.18106 23.1264 9.75969 22.4202 9.73223C21.7141 9.70477 21.1867 9.12277 21.2033 8.38914C21.2353 7.69088 21.8243 7.11224 22.5402 7.11374ZM16.0145 10.7684C16.9509 10.7932 17.7062 11.6085 17.6525 12.5946C17.5988 13.5806 16.787 14.3718 15.8506 14.347C14.9142 14.3222 14.1589 13.5069 14.2126 12.5208C14.2663 11.5348 15.0781 10.7436 16.0145 10.7684ZM22.1403 15.842C23.1116 15.8503 23.8823 16.7009 23.8189 17.713C23.7806 18.7344 22.9339 19.5421 21.9375 19.5245C20.9663 19.5162 20.1955 18.6656 20.2589 17.6535C20.3224 16.6415 21.1691 15.8338 22.1403 15.842Z" fill="#B21725"/>
<path d="M5.43124 18.1632C5.48207 16.9975 6.48862 16.1295 7.70884 16.2155C8.92905 16.3015 9.8657 17.3149 9.78916 18.4703C9.73833 19.636 8.73178 20.504 7.51156 20.418C6.31706 20.3424 5.38041 19.329 5.43124 18.1632ZM2.29729 16.6707C2.34208 15.9654 2.93686 15.4525 3.66986 15.4871C4.39284 15.5466 4.95683 16.1496 4.91204 16.8549C4.86725 17.5602 4.27247 18.0731 3.53947 18.0385C2.8422 17.9894 2.27821 17.3863 2.29729 16.6707ZM5.79059 23.2841C5.8384 22.3486 6.67197 21.6136 7.65642 21.6915C8.64088 21.7693 9.4119 22.6004 9.36409 23.5359C9.31628 24.4714 8.48272 25.2065 7.49827 25.1286C6.51381 25.0507 5.74279 24.2196 5.79059 23.2841ZM11.0131 17.2848C11.0452 16.314 11.9145 15.5644 12.9247 15.6527C13.9449 15.716 14.7316 16.5823 14.6895 17.5779C14.6574 18.5487 13.7881 19.2983 12.7779 19.2101C11.7677 19.1218 10.981 18.2555 11.0131 17.2848Z" fill="#B21725"/>
</svg>
