<svg width="31" height="31" viewBox="0 0 31 31" fill="none" xmlns="http://www.w3.org/2000/svg">
<circle cx="15.5" cy="15.5002" r="15.5" fill="#C98E52"/>
<circle cx="15.5" cy="15.5002" r="15.5" fill="#C98E52"/>
<circle cx="15.5" cy="15.5" r="12.5" fill="#F6DA77"/>
<path d="M19.0484 7.2844L19.374 7.00018L19.6997 7.2844L19.374 7.56862L19.0484 7.2844ZM21.1741 8.08941L21.4998 7.80519L21.8254 8.08941L21.4998 8.37363L21.1741 8.08941ZM18.4094 9.15222L18.735 8.868L19.0606 9.15222L18.735 9.43644L18.4094 9.15222ZM19.5342 9.96856L19.8598 9.68434L20.1854 9.96856L19.8598 10.2528L19.5342 9.96856ZM22.461 10.0052L22.7866 9.72095L23.1122 10.0052L22.7866 10.2894L22.461 10.0052ZM24.3487 12.0365L24.6744 11.7523L25 12.0365L24.6744 12.3207L24.3487 12.0365ZM19.5127 11.7653L19.8383 11.4811L20.1639 11.7653L19.8383 12.0495L19.5127 11.7653ZM19.7457 12.8062L20.0713 12.522L20.3969 12.8062L20.0713 13.0904L19.7457 12.8062ZM17 13.716L17.3256 13.4317L17.6512 13.716L17.3256 14.0002L17 13.716ZM18.584 7.84308L18.8282 7.62992L19.0724 7.84308L18.8282 8.05625L18.584 7.84308ZM20.6532 9.35964L20.8974 9.14648L21.1416 9.35964L20.8974 9.57281L20.6532 9.35964ZM22.8771 9.36854L23.1213 9.15538L23.3655 9.36854L23.1213 9.58171L22.8771 9.36854ZM18.4962 10.5469L18.7404 10.3337L18.9846 10.5469L18.7404 10.7601L18.4962 10.5469ZM17.497 11.399L17.7412 11.1858L17.9854 11.3989L17.7412 11.612L17.497 11.399ZM17.1138 13.1768L17.358 12.9636L17.6022 13.1768L17.358 13.39L17.1138 13.1768ZM19.2264 13.2918L19.4706 13.0786L19.7148 13.2919L19.4706 13.505L19.2264 13.2918ZM21.3481 12.2956L21.5923 12.0824L21.8366 12.2956L21.5923 12.5087L21.3481 12.2956ZM22.3783 12.6616L22.6225 12.4485L22.8667 12.6616L22.6225 12.8746L22.3783 12.6616ZM23.7488 11.8397L23.993 11.6267L24.2372 11.8398L23.993 12.053L23.7488 11.8397Z" fill="#FFAB41"/>
<path d="M18.0484 19.2844L18.374 19.0002L18.6997 19.2844L18.374 19.5686L18.0484 19.2844ZM20.1741 20.0894L20.4998 19.8052L20.8254 20.0894L20.4998 20.3736L20.1741 20.0894ZM17.4094 21.1522L17.735 20.868L18.0606 21.1522L17.735 21.4364L17.4094 21.1522ZM18.5342 21.9686L18.8598 21.6843L19.1854 21.9686L18.8598 22.2528L18.5342 21.9686ZM21.461 22.0052L21.7866 21.7209L22.1122 22.0052L21.7866 22.2894L21.461 22.0052ZM23.3487 24.0365L23.6744 23.7523L24 24.0365L23.6744 24.3207L23.3487 24.0365ZM18.5127 23.7653L18.8383 23.4811L19.1639 23.7653L18.8383 24.0495L18.5127 23.7653ZM18.7457 24.8062L19.0713 24.522L19.3969 24.8062L19.0713 25.0904L18.7457 24.8062ZM16 25.716L16.3256 25.4317L16.6512 25.716L16.3256 26.0002L16 25.716ZM17.584 19.8431L17.8282 19.6299L18.0724 19.8431L17.8282 20.0562L17.584 19.8431ZM19.6532 21.3596L19.8974 21.1465L20.1416 21.3596L19.8974 21.5728L19.6532 21.3596ZM21.8771 21.3685L22.1213 21.1554L22.3655 21.3685L22.1213 21.5817L21.8771 21.3685ZM17.4962 22.5469L17.7404 22.3337L17.9846 22.5469L17.7404 22.7601L17.4962 22.5469ZM16.497 23.399L16.7412 23.1858L16.9854 23.3988L16.7412 23.612L16.497 23.399ZM16.1138 25.1768L16.358 24.9636L16.6022 25.1768L16.358 25.39L16.1138 25.1768ZM18.2264 25.2918L18.4706 25.0786L18.7148 25.2919L18.4706 25.505L18.2264 25.2918ZM20.3481 24.2956L20.5923 24.0824L20.8366 24.2956L20.5923 24.5087L20.3481 24.2956ZM21.3783 24.6616L21.6225 24.4485L21.8667 24.6616L21.6225 24.8746L21.3783 24.6616ZM22.7488 23.8397L22.993 23.6267L23.2372 23.8398L22.993 24.053L22.7488 23.8397Z" fill="#FFAB41"/>
<path d="M11.0484 4.2844L11.374 4.00018L11.6997 4.2844L11.374 4.56862L11.0484 4.2844ZM13.1741 5.08941L13.4998 4.80519L13.8254 5.08941L13.4998 5.37363L13.1741 5.08941ZM10.4094 6.15222L10.735 5.868L11.0606 6.15222L10.735 6.43644L10.4094 6.15222ZM11.5342 6.96856L11.8598 6.68434L12.1854 6.96856L11.8598 7.25278L11.5342 6.96856ZM14.461 7.00517L14.7866 6.72095L15.1122 7.00517L14.7866 7.28939L14.461 7.00517ZM16.3487 9.03648L16.6744 8.75226L17 9.03648L16.6744 9.3207L16.3487 9.03648ZM11.5127 8.76532L11.8383 8.4811L12.1639 8.76532L11.8383 9.04954L11.5127 8.76532ZM11.7457 9.80617L12.0713 9.52195L12.3969 9.80617L12.0713 10.0904L11.7457 9.80617ZM8.99998 10.716L9.3256 10.4317L9.65122 10.716L9.3256 11.0002L8.99998 10.716ZM10.584 4.84308L10.8282 4.62992L11.0724 4.84308L10.8282 5.05625L10.584 4.84308ZM12.6532 6.35964L12.8974 6.14648L13.1416 6.35964L12.8974 6.57281L12.6532 6.35964ZM14.8771 6.36854L15.1213 6.15538L15.3655 6.36854L15.1213 6.58171L14.8771 6.36854ZM10.4962 7.54691L10.7404 7.33374L10.9846 7.54691L10.7404 7.76007L10.4962 7.54691ZM9.49696 8.39899L9.74118 8.18583L9.98539 8.39885L9.74118 8.61202L9.49696 8.39899ZM9.11379 10.1768L9.358 9.96364L9.60221 10.1768L9.358 10.39L9.11379 10.1768ZM11.2264 10.2918L11.4706 10.0786L11.7148 10.2919L11.4706 10.505L11.2264 10.2918ZM13.3481 9.29558L13.5923 9.08241L13.8366 9.29558L13.5923 9.50874L13.3481 9.29558ZM14.3783 9.66162L14.6225 9.44846L14.8667 9.66162L14.6225 9.87464L14.3783 9.66162ZM15.7488 8.83968L15.993 8.62666L16.2372 8.83982L15.993 9.05299L15.7488 8.83968Z" fill="#FFAB41"/>
<path d="M21.0484 12.2844L21.374 12.0002L21.6997 12.2844L21.374 12.5686L21.0484 12.2844ZM23.1741 13.0894L23.4998 12.8052L23.8254 13.0894L23.4998 13.3736L23.1741 13.0894ZM20.4094 14.1522L20.735 13.868L21.0606 14.1522L20.735 14.4364L20.4094 14.1522ZM21.5342 14.9686L21.8598 14.6843L22.1854 14.9686L21.8598 15.2528L21.5342 14.9686ZM24.461 15.0052L24.7866 14.7209L25.1122 15.0052L24.7866 15.2894L24.461 15.0052ZM26.3487 17.0365L26.6744 16.7523L27 17.0365L26.6744 17.3207L26.3487 17.0365ZM21.5127 16.7653L21.8383 16.4811L22.1639 16.7653L21.8383 17.0495L21.5127 16.7653ZM21.7457 17.8062L22.0713 17.522L22.3969 17.8062L22.0713 18.0904L21.7457 17.8062ZM19 18.716L19.3256 18.4317L19.6512 18.716L19.3256 19.0002L19 18.716ZM20.584 12.8431L20.8282 12.6299L21.0724 12.8431L20.8282 13.0562L20.584 12.8431ZM22.6532 14.3596L22.8974 14.1465L23.1416 14.3596L22.8974 14.5728L22.6532 14.3596ZM24.8771 14.3685L25.1213 14.1554L25.3655 14.3685L25.1213 14.5817L24.8771 14.3685ZM20.4962 15.5469L20.7404 15.3337L20.9846 15.5469L20.7404 15.7601L20.4962 15.5469ZM19.497 16.399L19.7412 16.1858L19.9854 16.3988L19.7412 16.612L19.497 16.399ZM19.1138 18.1768L19.358 17.9636L19.6022 18.1768L19.358 18.39L19.1138 18.1768ZM21.2264 18.2918L21.4706 18.0786L21.7148 18.2919L21.4706 18.505L21.2264 18.2918ZM23.3481 17.2956L23.5923 17.0824L23.8366 17.2956L23.5923 17.5087L23.3481 17.2956ZM24.3783 17.6616L24.6225 17.4485L24.8667 17.6616L24.6225 17.8746L24.3783 17.6616ZM25.7488 16.8397L25.993 16.6267L26.2372 16.8398L25.993 17.053L25.7488 16.8397Z" fill="#FFAB41"/>
<path d="M14.0484 20.2844L14.374 20.0002L14.6997 20.2844L14.374 20.5686L14.0484 20.2844ZM16.1741 21.0894L16.4998 20.8052L16.8254 21.0894L16.4998 21.3736L16.1741 21.0894ZM13.4094 22.1522L13.735 21.868L14.0606 22.1522L13.735 22.4364L13.4094 22.1522ZM14.5342 22.9686L14.8598 22.6843L15.1854 22.9686L14.8598 23.2528L14.5342 22.9686ZM17.461 23.0052L17.7866 22.7209L18.1122 23.0052L17.7866 23.2894L17.461 23.0052ZM19.3487 25.0365L19.6744 24.7523L20 25.0365L19.6744 25.3207L19.3487 25.0365ZM14.5127 24.7653L14.8383 24.4811L15.1639 24.7653L14.8383 25.0495L14.5127 24.7653ZM14.7457 25.8062L15.0713 25.522L15.3969 25.8062L15.0713 26.0904L14.7457 25.8062ZM12 26.716L12.3256 26.4317L12.6512 26.716L12.3256 27.0002L12 26.716ZM13.584 20.8431L13.8282 20.6299L14.0724 20.8431L13.8282 21.0562L13.584 20.8431ZM15.6532 22.3596L15.8974 22.1465L16.1416 22.3596L15.8974 22.5728L15.6532 22.3596ZM17.8771 22.3685L18.1213 22.1554L18.3655 22.3685L18.1213 22.5817L17.8771 22.3685ZM13.4962 23.5469L13.7404 23.3337L13.9846 23.5469L13.7404 23.7601L13.4962 23.5469ZM12.497 24.399L12.7412 24.1858L12.9854 24.3988L12.7412 24.612L12.497 24.399ZM12.1138 26.1768L12.358 25.9636L12.6022 26.1768L12.358 26.39L12.1138 26.1768ZM14.2264 26.2918L14.4706 26.0786L14.7148 26.2919L14.4706 26.505L14.2264 26.2918ZM16.3481 25.2956L16.5923 25.0824L16.8366 25.2956L16.5923 25.5087L16.3481 25.2956ZM17.3783 25.6616L17.6225 25.4485L17.8667 25.6616L17.6225 25.8746L17.3783 25.6616ZM18.7488 24.8397L18.993 24.6267L19.2372 24.8398L18.993 25.053L18.7488 24.8397Z" fill="#FFAB41"/>
<path d="M13.0484 13.2844L13.374 13.0002L13.6997 13.2844L13.374 13.5686L13.0484 13.2844ZM15.1741 14.0894L15.4998 13.8052L15.8254 14.0894L15.4998 14.3736L15.1741 14.0894ZM12.4094 15.1522L12.735 14.868L13.0606 15.1522L12.735 15.4364L12.4094 15.1522ZM13.5342 15.9686L13.8598 15.6843L14.1854 15.9686L13.8598 16.2528L13.5342 15.9686ZM16.461 16.0052L16.7866 15.7209L17.1122 16.0052L16.7866 16.2894L16.461 16.0052ZM18.3487 18.0365L18.6744 17.7523L19 18.0365L18.6744 18.3207L18.3487 18.0365ZM13.5127 17.7653L13.8383 17.4811L14.1639 17.7653L13.8383 18.0495L13.5127 17.7653ZM13.7457 18.8062L14.0713 18.522L14.3969 18.8062L14.0713 19.0904L13.7457 18.8062ZM11 19.716L11.3256 19.4317L11.6512 19.716L11.3256 20.0002L11 19.716ZM12.584 13.8431L12.8282 13.6299L13.0724 13.8431L12.8282 14.0562L12.584 13.8431ZM14.6532 15.3596L14.8974 15.1465L15.1416 15.3596L14.8974 15.5728L14.6532 15.3596ZM16.8771 15.3685L17.1213 15.1554L17.3655 15.3685L17.1213 15.5817L16.8771 15.3685ZM12.4962 16.5469L12.7404 16.3337L12.9846 16.5469L12.7404 16.7601L12.4962 16.5469ZM11.497 17.399L11.7412 17.1858L11.9854 17.3988L11.7412 17.612L11.497 17.399ZM11.1138 19.1768L11.358 18.9636L11.6022 19.1768L11.358 19.39L11.1138 19.1768ZM13.2264 19.2918L13.4706 19.0786L13.7148 19.2919L13.4706 19.505L13.2264 19.2918ZM15.3481 18.2956L15.5923 18.0824L15.8366 18.2956L15.5923 18.5087L15.3481 18.2956ZM16.3783 18.6616L16.6225 18.4485L16.8667 18.6616L16.6225 18.8746L16.3783 18.6616ZM17.7488 17.8397L17.993 17.6267L18.2372 17.8398L17.993 18.053L17.7488 17.8397Z" fill="#FFAB41"/>
<path d="M5.67901 18.9732L5.24679 18.9742L5.18742 18.5461L5.61963 18.5451L5.67901 18.9732ZM4.60238 16.9713L4.17017 16.9723L4.11079 16.5442L4.543 16.5432L4.60238 16.9713ZM7.38649 17.9824L6.95428 17.9834L6.8949 17.5553L7.32711 17.5543L7.38649 17.9824ZM7.07281 16.6284L6.6406 16.6294L6.58122 16.2013L7.01343 16.2003L7.07281 16.6284ZM4.88751 14.6811L4.4553 14.6821L4.39592 14.254L4.82814 14.253L4.88751 14.6811ZM4.79484 11.9096L4.36263 11.9106L4.30325 11.4825L4.73546 11.4815L4.79484 11.9096ZM8.26754 15.2862L7.83533 15.2872L7.77595 14.8591L8.20816 14.8581L8.26754 15.2862ZM8.77432 14.3477L8.34211 14.3487L8.28273 13.9206L8.71494 13.9196L8.77432 14.3477ZM11.4437 15.4618L11.0115 15.4628L10.9521 15.0347L11.3843 15.0337L11.4437 15.4618ZM6.39601 18.8561L6.07185 18.8568L6.02731 18.5357L6.35147 18.535L6.39601 18.8561ZM5.82878 16.3542L5.50462 16.3549L5.46009 16.0338L5.78425 16.0331L5.82878 16.3542ZM4.15589 14.8888L3.83173 14.8895L3.7872 14.5685L4.11135 14.5677L4.15589 14.8888ZM8.2357 16.8727L7.91154 16.8734L7.86701 16.5523L8.19117 16.5516L8.2357 16.8727ZM9.54884 16.8848L9.22468 16.8856L9.18006 16.5646L9.50422 16.5639L9.54884 16.8848ZM11.0041 15.7942L10.68 15.7949L10.6354 15.4738L10.9596 15.4731L11.0041 15.7942ZM9.48486 14.3218L9.1607 14.3225L9.11626 14.0013L9.44032 14.0007L9.48486 14.3218ZM7.22982 13.6821L6.90566 13.6828L6.86112 13.3618L7.18528 13.361L7.22982 13.6821ZM6.69229 12.7301L6.36813 12.7309L6.3236 12.4098L6.64766 12.4092L6.69229 12.7301ZM5.11862 12.4517L4.79455 12.4523L4.75002 12.1312L5.07418 12.1305L5.11862 12.4517Z" fill="#FFAB41"/>
<path d="M15.0484 4.2844L15.374 4.00018L15.6997 4.2844L15.374 4.56862L15.0484 4.2844ZM17.1741 5.08941L17.4998 4.80519L17.8254 5.08941L17.4998 5.37363L17.1741 5.08941ZM14.4094 6.15222L14.735 5.868L15.0606 6.15222L14.735 6.43644L14.4094 6.15222ZM15.5342 6.96856L15.8598 6.68434L16.1854 6.96856L15.8598 7.25278L15.5342 6.96856ZM18.461 7.00517L18.7866 6.72095L19.1122 7.00517L18.7866 7.28939L18.461 7.00517ZM20.3487 9.03648L20.6744 8.75226L21 9.03648L20.6744 9.3207L20.3487 9.03648ZM15.5127 8.76532L15.8383 8.4811L16.1639 8.76532L15.8383 9.04954L15.5127 8.76532ZM15.7457 9.80617L16.0713 9.52195L16.3969 9.80617L16.0713 10.0904L15.7457 9.80617ZM13 10.716L13.3256 10.4317L13.6512 10.716L13.3256 11.0002L13 10.716ZM14.584 4.84308L14.8282 4.62992L15.0724 4.84308L14.8282 5.05625L14.584 4.84308ZM16.6532 6.35964L16.8974 6.14648L17.1416 6.35964L16.8974 6.57281L16.6532 6.35964ZM18.8771 6.36854L19.1213 6.15538L19.3655 6.36854L19.1213 6.58171L18.8771 6.36854ZM14.4962 7.54691L14.7404 7.33374L14.9846 7.54691L14.7404 7.76007L14.4962 7.54691ZM13.497 8.39899L13.7412 8.18583L13.9854 8.39885L13.7412 8.61202L13.497 8.39899ZM13.1138 10.1768L13.358 9.96364L13.6022 10.1768L13.358 10.39L13.1138 10.1768ZM15.2264 10.2918L15.4706 10.0786L15.7148 10.2919L15.4706 10.505L15.2264 10.2918ZM17.3481 9.29558L17.5923 9.08241L17.8366 9.29558L17.5923 9.50874L17.3481 9.29558ZM18.3783 9.66162L18.6225 9.44846L18.8667 9.66162L18.6225 9.87464L18.3783 9.66162ZM19.7488 8.83968L19.993 8.62666L20.2372 8.83982L19.993 9.05299L19.7488 8.83968Z" fill="#FFAB41"/>
<path d="M20.0484 15.2844L20.374 15.0002L20.6997 15.2844L20.374 15.5686L20.0484 15.2844ZM22.1741 16.0894L22.4998 15.8052L22.8254 16.0894L22.4998 16.3736L22.1741 16.0894ZM19.4094 17.1522L19.735 16.868L20.0606 17.1522L19.735 17.4364L19.4094 17.1522ZM20.5342 17.9686L20.8598 17.6843L21.1854 17.9686L20.8598 18.2528L20.5342 17.9686ZM23.461 18.0052L23.7866 17.7209L24.1122 18.0052L23.7866 18.2894L23.461 18.0052ZM25.3487 20.0365L25.6744 19.7523L26 20.0365L25.6744 20.3207L25.3487 20.0365ZM20.5127 19.7653L20.8383 19.4811L21.1639 19.7653L20.8383 20.0495L20.5127 19.7653ZM20.7457 20.8062L21.0713 20.522L21.3969 20.8062L21.0713 21.0904L20.7457 20.8062ZM18 21.716L18.3256 21.4317L18.6512 21.716L18.3256 22.0002L18 21.716ZM19.584 15.8431L19.8282 15.6299L20.0724 15.8431L19.8282 16.0562L19.584 15.8431ZM21.6532 17.3596L21.8974 17.1465L22.1416 17.3596L21.8974 17.5728L21.6532 17.3596ZM23.8771 17.3685L24.1213 17.1554L24.3655 17.3685L24.1213 17.5817L23.8771 17.3685ZM19.4962 18.5469L19.7404 18.3337L19.9846 18.5469L19.7404 18.7601L19.4962 18.5469ZM18.497 19.399L18.7412 19.1858L18.9854 19.3988L18.7412 19.612L18.497 19.399ZM18.1138 21.1768L18.358 20.9636L18.6022 21.1768L18.358 21.39L18.1138 21.1768ZM20.2264 21.2918L20.4706 21.0786L20.7148 21.2919L20.4706 21.505L20.2264 21.2918ZM22.3481 20.2956L22.5923 20.0824L22.8366 20.2956L22.5923 20.5087L22.3481 20.2956ZM23.3783 20.6616L23.6225 20.4485L23.8667 20.6616L23.6225 20.8746L23.3783 20.6616ZM24.7488 19.8397L24.993 19.6267L25.2372 19.8398L24.993 20.053L24.7488 19.8397Z" fill="#FFAB41"/>
<path d="M9.04842 7.2844L9.37403 7.00018L9.69965 7.2844L9.37403 7.56862L9.04842 7.2844ZM11.1741 8.08941L11.4998 7.80519L11.8254 8.08941L11.4998 8.37363L11.1741 8.08941ZM8.40935 9.15222L8.73497 8.868L9.06059 9.15222L8.73497 9.43644L8.40935 9.15222ZM9.53421 9.96856L9.85983 9.68434L10.1854 9.96856L9.85983 10.2528L9.53421 9.96856ZM12.461 10.0052L12.7866 9.72095L13.1122 10.0052L12.7866 10.2894L12.461 10.0052ZM14.3487 12.0365L14.6744 11.7523L15 12.0365L14.6744 12.3207L14.3487 12.0365ZM9.51267 11.7653L9.83829 11.4811L10.1639 11.7653L9.83829 12.0495L9.51267 11.7653ZM9.7457 12.8062L10.0713 12.522L10.3969 12.8062L10.0713 13.0904L9.7457 12.8062ZM6.99998 13.716L7.3256 13.4317L7.65122 13.716L7.3256 14.0002L6.99998 13.716ZM8.584 7.84308L8.82821 7.62992L9.07243 7.84308L8.82821 8.05625L8.584 7.84308ZM10.6532 9.35964L10.8974 9.14648L11.1416 9.35964L10.8974 9.57281L10.6532 9.35964ZM12.8771 9.36854L13.1213 9.15538L13.3655 9.36854L13.1213 9.58171L12.8771 9.36854ZM8.49618 10.5469L8.7404 10.3337L8.98461 10.5469L8.7404 10.7601L8.49618 10.5469ZM7.49696 11.399L7.74118 11.1858L7.98539 11.3988L7.74118 11.612L7.49696 11.399ZM7.11379 13.1768L7.358 12.9636L7.60221 13.1768L7.358 13.39L7.11379 13.1768ZM9.22635 13.2918L9.47057 13.0786L9.71478 13.2919L9.47057 13.505L9.22635 13.2918ZM11.3481 12.2956L11.5923 12.0824L11.8366 12.2956L11.5923 12.5087L11.3481 12.2956ZM12.3783 12.6616L12.6225 12.4485L12.8667 12.6616L12.6225 12.8746L12.3783 12.6616ZM13.7488 11.8397L13.993 11.6267L14.2372 11.8398L13.993 12.053L13.7488 11.8397Z" fill="#FFAB41"/>
<path d="M5.24625 20.336L5.1567 19.9132L5.56355 19.7673L5.6531 20.1901L5.24625 20.336ZM6.98496 18.8719L6.89541 18.4491L7.30226 18.3032L7.39181 18.726L6.98496 18.8719ZM6.56599 21.8041L6.47644 21.3813L6.88329 21.2354L6.97284 21.6583L6.56599 21.8041ZM7.82694 21.2196L7.73739 20.7967L8.14425 20.6509L8.2338 21.0737L7.82694 21.2196ZM9.28493 18.6815L9.19538 18.2587L9.60223 18.1128L9.69178 18.5357L9.28493 18.6815ZM11.9786 18.0227L11.889 17.5999L12.2959 17.454L12.3855 17.8769L11.9786 18.0227ZM9.38551 22.1138L9.29596 21.691L9.70281 21.5451L9.79236 21.968L9.38551 22.1138ZM10.408 22.4175L10.3184 21.9946L10.7253 21.8488L10.8148 22.2716L10.408 22.4175ZM9.86469 25.2585L9.77514 24.8357L10.182 24.6898L10.2715 25.1126L9.86469 25.2585ZM5.50785 21.0138L5.44069 20.6966L5.74583 20.5872L5.81299 20.9044L5.50785 21.0138ZM7.84038 19.9457L7.77321 19.6286L8.07835 19.5192L8.14552 19.8363L7.84038 19.9457ZM8.9317 18.008L8.86454 17.6909L9.16968 17.5815L9.23684 17.8986L8.9317 18.008ZM7.82624 22.4078L7.75907 22.0907L8.06421 21.9813L8.13138 22.2984L7.82624 22.4078ZM8.08349 23.6956L8.01633 23.3785L8.32134 23.269L8.3885 23.5861L8.08349 23.6956ZM9.44931 24.8964L9.38215 24.5793L9.68729 24.4699L9.75445 24.787L9.44931 24.8964ZM10.579 23.1076L10.5119 22.7905L10.8171 22.6811L10.8842 22.9982L10.579 23.1076ZM10.7429 20.7693L10.6757 20.4522L10.9808 20.3428L11.048 20.6599L10.7429 20.7693ZM11.5644 20.0481L11.4973 19.731L11.8024 19.6216L11.8694 19.9386L11.5644 20.0481ZM11.5144 18.4507L11.4474 18.1337L11.7525 18.0243L11.8197 18.3414L11.5144 18.4507Z" fill="#FFAB41"/>
</svg>
