<svg width="27" height="27" viewBox="0 0 27 27" fill="none" xmlns="http://www.w3.org/2000/svg">
<circle cx="13.5" cy="13.5" r="13.5" fill="#C98E52"/>
<circle cx="13.5" cy="13.5" r="12.5" fill="#F6DA77"/>
<path d="M17.0484 5.28422L17.374 5L17.6997 5.28422L17.374 5.56844L17.0484 5.28422ZM19.1742 6.08922L19.4998 5.805L19.8254 6.08922L19.4998 6.37344L19.1742 6.08922ZM16.4094 7.15204L16.735 6.86782L17.0606 7.15204L16.735 7.43626L16.4094 7.15204ZM17.5342 7.96838L17.8598 7.68416L18.1855 7.96838L17.8598 8.2526L17.5342 7.96838ZM20.461 8.00498L20.7866 7.72076L21.1122 8.00498L20.7866 8.2892L20.461 8.00498ZM22.3488 10.0363L22.6744 9.75208L23 10.0363L22.6744 10.3205L22.3488 10.0363ZM17.5127 9.76514L17.8383 9.48092L18.1639 9.76514L17.8383 10.0494L17.5127 9.76514ZM17.7457 10.806L18.0713 10.5218L18.3969 10.806L18.0713 11.0902L17.7457 10.806ZM15 11.7158L15.3256 11.4316L15.6512 11.7158L15.3256 12L15 11.7158ZM16.584 5.8429L16.8282 5.62973L17.0724 5.8429L16.8282 6.05606L16.584 5.8429ZM18.6532 7.35946L18.8974 7.14629L19.1416 7.35946L18.8974 7.57262L18.6532 7.35946ZM20.8771 7.36836L21.1213 7.15519L21.3655 7.36836L21.1213 7.58152L20.8771 7.36836ZM16.4962 8.54672L16.7404 8.33356L16.9846 8.54672L16.7404 8.75989L16.4962 8.54672ZM15.497 9.39881L15.7412 9.18565L15.9854 9.39867L15.7412 9.61183L15.497 9.39881ZM15.1138 11.1766L15.358 10.9635L15.6022 11.1766L15.358 11.3898L15.1138 11.1766ZM17.2264 11.2916L17.4706 11.0784L17.7148 11.2917L17.4706 11.5048L17.2264 11.2916ZM19.3481 10.2954L19.5924 10.0822L19.8366 10.2954L19.5924 10.5086L19.3481 10.2954ZM20.3783 10.6614L20.6225 10.4483L20.8667 10.6614L20.6225 10.8745L20.3783 10.6614ZM21.7488 9.8395L21.9931 9.62647L22.2373 9.83964L21.9931 10.0528L21.7488 9.8395Z" fill="#FFAB41"/>
<path d="M16.0484 17.2842L16.374 17L16.6997 17.2842L16.374 17.5684L16.0484 17.2842ZM18.1742 18.0892L18.4998 17.805L18.8254 18.0892L18.4998 18.3734L18.1742 18.0892ZM15.4094 19.152L15.735 18.8678L16.0606 19.152L15.735 19.4363L15.4094 19.152ZM16.5342 19.9684L16.8598 19.6842L17.1855 19.9684L16.8598 20.2526L16.5342 19.9684ZM19.461 20.005L19.7866 19.7208L20.1122 20.005L19.7866 20.2892L19.461 20.005ZM21.3488 22.0363L21.6744 21.7521L22 22.0363L21.6744 22.3205L21.3488 22.0363ZM16.5127 21.7651L16.8383 21.4809L17.1639 21.7651L16.8383 22.0494L16.5127 21.7651ZM16.7457 22.806L17.0713 22.5218L17.3969 22.806L17.0713 23.0902L16.7457 22.806ZM14 23.7158L14.3256 23.4316L14.6512 23.7158L14.3256 24L14 23.7158ZM15.584 17.8429L15.8282 17.6297L16.0724 17.8429L15.8282 18.0561L15.584 17.8429ZM17.6532 19.3595L17.8974 19.1463L18.1416 19.3595L17.8974 19.5726L17.6532 19.3595ZM19.8771 19.3684L20.1213 19.1552L20.3655 19.3684L20.1213 19.5815L19.8771 19.3684ZM15.4962 20.5467L15.7404 20.3336L15.9846 20.5467L15.7404 20.7599L15.4962 20.5467ZM14.497 21.3988L14.7412 21.1856L14.9854 21.3987L14.7412 21.6118L14.497 21.3988ZM14.1138 23.1766L14.358 22.9635L14.6022 23.1766L14.358 23.3898L14.1138 23.1766ZM16.2264 23.2916L16.4706 23.0784L16.7148 23.2917L16.4706 23.5048L16.2264 23.2916ZM18.3481 22.2954L18.5924 22.0822L18.8366 22.2954L18.5924 22.5086L18.3481 22.2954ZM19.3783 22.6614L19.6225 22.4483L19.8667 22.6614L19.6225 22.8745L19.3783 22.6614ZM20.7488 21.8395L20.9931 21.6265L21.2373 21.8396L20.9931 22.0528L20.7488 21.8395Z" fill="#FFAB41"/>
<path d="M9.04843 2.28422L9.37405 2L9.69967 2.28422L9.37405 2.56844L9.04843 2.28422ZM11.1742 3.08922L11.4998 2.805L11.8254 3.08922L11.4998 3.37344L11.1742 3.08922ZM8.40937 4.15204L8.73498 3.86782L9.0606 4.15204L8.73498 4.43626L8.40937 4.15204ZM9.53423 4.96838L9.85984 4.68416L10.1855 4.96838L9.85984 5.2526L9.53423 4.96838ZM12.461 5.00498L12.7866 4.72076L13.1122 5.00498L12.7866 5.2892L12.461 5.00498ZM14.3488 7.0363L14.6744 6.75208L15 7.0363L14.6744 7.32052L14.3488 7.0363ZM9.51268 6.76514L9.8383 6.48092L10.1639 6.76514L9.8383 7.04936L9.51268 6.76514ZM9.74571 7.80599L10.0713 7.52177L10.3969 7.80599L10.0713 8.09021L9.74571 7.80599ZM7 8.71578L7.32562 8.43156L7.65124 8.71578L7.32562 9L7 8.71578ZM8.58402 2.8429L8.82823 2.62973L9.07244 2.8429L8.82823 3.05606L8.58402 2.8429ZM10.6532 4.35946L10.8974 4.14629L11.1416 4.35946L10.8974 4.57262L10.6532 4.35946ZM12.8771 4.36836L13.1213 4.15519L13.3655 4.36836L13.1213 4.58152L12.8771 4.36836ZM8.4962 5.54672L8.74041 5.33356L8.98462 5.54672L8.74041 5.75989L8.4962 5.54672ZM7.49698 6.39881L7.74119 6.18565L7.9854 6.39867L7.74119 6.61183L7.49698 6.39881ZM7.1138 8.17662L7.35802 7.96346L7.60223 8.17662L7.35802 8.38979L7.1138 8.17662ZM9.22637 8.2916L9.47058 8.07844L9.7148 8.29175L9.47058 8.50477L9.22637 8.2916ZM11.3481 7.2954L11.5924 7.08223L11.8366 7.2954L11.5924 7.50856L11.3481 7.2954ZM12.3783 7.66144L12.6225 7.44827L12.8667 7.66144L12.6225 7.87446L12.3783 7.66144ZM13.7488 6.8395L13.9931 6.62647L14.2373 6.83964L13.9931 7.0528L13.7488 6.8395Z" fill="#FFAB41"/>
<path d="M19.0484 10.2842L19.374 10L19.6997 10.2842L19.374 10.5684L19.0484 10.2842ZM21.1742 11.0892L21.4998 10.805L21.8254 11.0892L21.4998 11.3734L21.1742 11.0892ZM18.4094 12.152L18.735 11.8678L19.0606 12.152L18.735 12.4363L18.4094 12.152ZM19.5342 12.9684L19.8598 12.6842L20.1855 12.9684L19.8598 13.2526L19.5342 12.9684ZM22.461 13.005L22.7866 12.7208L23.1122 13.005L22.7866 13.2892L22.461 13.005ZM24.3488 15.0363L24.6744 14.7521L25 15.0363L24.6744 15.3205L24.3488 15.0363ZM19.5127 14.7651L19.8383 14.4809L20.1639 14.7651L19.8383 15.0494L19.5127 14.7651ZM19.7457 15.806L20.0713 15.5218L20.3969 15.806L20.0713 16.0902L19.7457 15.806ZM17 16.7158L17.3256 16.4316L17.6512 16.7158L17.3256 17L17 16.7158ZM18.584 10.8429L18.8282 10.6297L19.0724 10.8429L18.8282 11.0561L18.584 10.8429ZM20.6532 12.3595L20.8974 12.1463L21.1416 12.3595L20.8974 12.5726L20.6532 12.3595ZM22.8771 12.3684L23.1213 12.1552L23.3655 12.3684L23.1213 12.5815L22.8771 12.3684ZM18.4962 13.5467L18.7404 13.3336L18.9846 13.5467L18.7404 13.7599L18.4962 13.5467ZM17.497 14.3988L17.7412 14.1856L17.9854 14.3987L17.7412 14.6118L17.497 14.3988ZM17.1138 16.1766L17.358 15.9635L17.6022 16.1766L17.358 16.3898L17.1138 16.1766ZM19.2264 16.2916L19.4706 16.0784L19.7148 16.2917L19.4706 16.5048L19.2264 16.2916ZM21.3481 15.2954L21.5924 15.0822L21.8366 15.2954L21.5924 15.5086L21.3481 15.2954ZM22.3783 15.6614L22.6225 15.4483L22.8667 15.6614L22.6225 15.8745L22.3783 15.6614ZM23.7488 14.8395L23.9931 14.6265L24.2373 14.8396L23.9931 15.0528L23.7488 14.8395Z" fill="#FFAB41"/>
<path d="M12.0484 18.2842L12.374 18L12.6997 18.2842L12.374 18.5684L12.0484 18.2842ZM14.1742 19.0892L14.4998 18.805L14.8254 19.0892L14.4998 19.3734L14.1742 19.0892ZM11.4094 20.152L11.735 19.8678L12.0606 20.152L11.735 20.4363L11.4094 20.152ZM12.5342 20.9684L12.8598 20.6842L13.1855 20.9684L12.8598 21.2526L12.5342 20.9684ZM15.461 21.005L15.7866 20.7208L16.1122 21.005L15.7866 21.2892L15.461 21.005ZM17.3488 23.0363L17.6744 22.7521L18 23.0363L17.6744 23.3205L17.3488 23.0363ZM12.5127 22.7651L12.8383 22.4809L13.1639 22.7651L12.8383 23.0494L12.5127 22.7651ZM12.7457 23.806L13.0713 23.5218L13.3969 23.806L13.0713 24.0902L12.7457 23.806ZM10 24.7158L10.3256 24.4316L10.6512 24.7158L10.3256 25L10 24.7158ZM11.584 18.8429L11.8282 18.6297L12.0724 18.8429L11.8282 19.0561L11.584 18.8429ZM13.6532 20.3595L13.8974 20.1463L14.1416 20.3595L13.8974 20.5726L13.6532 20.3595ZM15.8771 20.3684L16.1213 20.1552L16.3655 20.3684L16.1213 20.5815L15.8771 20.3684ZM11.4962 21.5467L11.7404 21.3336L11.9846 21.5467L11.7404 21.7599L11.4962 21.5467ZM10.497 22.3988L10.7412 22.1856L10.9854 22.3987L10.7412 22.6118L10.497 22.3988ZM10.1138 24.1766L10.358 23.9635L10.6022 24.1766L10.358 24.3898L10.1138 24.1766ZM12.2264 24.2916L12.4706 24.0784L12.7148 24.2917L12.4706 24.5048L12.2264 24.2916ZM14.3481 23.2954L14.5924 23.0822L14.8366 23.2954L14.5924 23.5086L14.3481 23.2954ZM15.3783 23.6614L15.6225 23.4483L15.8667 23.6614L15.6225 23.8745L15.3783 23.6614ZM16.7488 22.8395L16.9931 22.6265L17.2373 22.8396L16.9931 23.0528L16.7488 22.8395Z" fill="#FFAB41"/>
<path d="M11.0484 11.2842L11.374 11L11.6997 11.2842L11.374 11.5684L11.0484 11.2842ZM13.1742 12.0892L13.4998 11.805L13.8254 12.0892L13.4998 12.3734L13.1742 12.0892ZM10.4094 13.152L10.735 12.8678L11.0606 13.152L10.735 13.4363L10.4094 13.152ZM11.5342 13.9684L11.8598 13.6842L12.1855 13.9684L11.8598 14.2526L11.5342 13.9684ZM14.461 14.005L14.7866 13.7208L15.1122 14.005L14.7866 14.2892L14.461 14.005ZM16.3488 16.0363L16.6744 15.7521L17 16.0363L16.6744 16.3205L16.3488 16.0363ZM11.5127 15.7651L11.8383 15.4809L12.1639 15.7651L11.8383 16.0494L11.5127 15.7651ZM11.7457 16.806L12.0713 16.5218L12.3969 16.806L12.0713 17.0902L11.7457 16.806ZM9 17.7158L9.32562 17.4316L9.65124 17.7158L9.32562 18L9 17.7158ZM10.584 11.8429L10.8282 11.6297L11.0724 11.8429L10.8282 12.0561L10.584 11.8429ZM12.6532 13.3595L12.8974 13.1463L13.1416 13.3595L12.8974 13.5726L12.6532 13.3595ZM14.8771 13.3684L15.1213 13.1552L15.3655 13.3684L15.1213 13.5815L14.8771 13.3684ZM10.4962 14.5467L10.7404 14.3336L10.9846 14.5467L10.7404 14.7599L10.4962 14.5467ZM9.49698 15.3988L9.74119 15.1856L9.9854 15.3987L9.74119 15.6118L9.49698 15.3988ZM9.1138 17.1766L9.35802 16.9635L9.60223 17.1766L9.35802 17.3898L9.1138 17.1766ZM11.2264 17.2916L11.4706 17.0784L11.7148 17.2917L11.4706 17.5048L11.2264 17.2916ZM13.3481 16.2954L13.5924 16.0822L13.8366 16.2954L13.5924 16.5086L13.3481 16.2954ZM14.3783 16.6614L14.6225 16.4483L14.8667 16.6614L14.6225 16.8745L14.3783 16.6614ZM15.7488 15.8395L15.9931 15.6265L16.2373 15.8396L15.9931 16.0528L15.7488 15.8395Z" fill="#FFAB41"/>
<path d="M1.38742 13.5484L1.19763 13.1601L1.55674 12.9196L1.74652 13.3079L1.38742 13.5484ZM2.71741 11.7051L2.52762 11.3167L2.88673 11.0762L3.07651 11.4645L2.71741 11.7051ZM3.02485 14.6511L2.83506 14.2628L3.19417 14.0223L3.38395 14.4106L3.02485 14.6511ZM4.10557 13.7772L3.91579 13.3888L4.27489 13.1483L4.46468 13.5366L4.10557 13.7772ZM4.90186 10.9605L4.71207 10.5722L5.07117 10.3317L5.26096 10.72L4.90186 10.9605ZM7.35412 9.66583L7.16433 9.27752L7.52343 9.03699L7.71322 9.42531L7.35412 9.66583ZM5.83495 14.2651L5.64516 13.8768L6.00426 13.6363L6.19405 14.0246L5.83495 14.2651ZM6.90059 14.3107L6.7108 13.9224L7.0699 13.6819L7.25969 14.0702L6.90059 14.3107ZM7.06523 17.1985L6.87544 16.8102L7.23455 16.5697L7.42433 16.958L7.06523 17.1985ZM1.80614 14.1421L1.6638 13.8509L1.93313 13.6705L2.07547 13.9617L1.80614 14.1421ZM3.80851 12.5384L3.66617 12.2471L3.9355 12.0668L4.07784 12.358L3.80851 12.5384ZM4.3953 10.3933L4.25296 10.102L4.52229 9.92164L4.66463 10.2129L4.3953 10.3933ZM4.39415 14.9299L4.25181 14.6386L4.52114 14.4582L4.66348 14.7495L4.39415 14.9299ZM4.95715 16.1162L4.81481 15.825L5.084 15.6446L5.22634 15.9358L4.95715 16.1162ZM6.5742 16.9485L6.43186 16.6572L6.70119 16.4768L6.84353 16.7681L6.5742 16.9485ZM7.23448 14.9384L7.09213 14.6472L7.3616 14.4668L7.5038 14.758L7.23448 14.9384ZM6.82417 12.6306L6.68183 12.3394L6.95116 12.159L7.0935 12.4502L6.82417 12.6306ZM7.44545 11.7311L7.30311 11.4398L7.57244 11.2594L7.71464 11.5506L7.44545 11.7311ZM7.00811 10.194L6.86591 9.90276L7.13523 9.72237L7.27758 10.0136L7.00811 10.194Z" fill="#FFAB41"/>
<path d="M13.0484 2.28422L13.374 2L13.6997 2.28422L13.374 2.56844L13.0484 2.28422ZM15.1742 3.08922L15.4998 2.805L15.8254 3.08922L15.4998 3.37344L15.1742 3.08922ZM12.4094 4.15204L12.735 3.86782L13.0606 4.15204L12.735 4.43626L12.4094 4.15204ZM13.5342 4.96838L13.8598 4.68416L14.1855 4.96838L13.8598 5.2526L13.5342 4.96838ZM16.461 5.00498L16.7866 4.72076L17.1122 5.00498L16.7866 5.2892L16.461 5.00498ZM18.3488 7.0363L18.6744 6.75208L19 7.0363L18.6744 7.32052L18.3488 7.0363ZM13.5127 6.76514L13.8383 6.48092L14.1639 6.76514L13.8383 7.04936L13.5127 6.76514ZM13.7457 7.80599L14.0713 7.52177L14.3969 7.80599L14.0713 8.09021L13.7457 7.80599ZM11 8.71578L11.3256 8.43156L11.6512 8.71578L11.3256 9L11 8.71578ZM12.584 2.8429L12.8282 2.62973L13.0724 2.8429L12.8282 3.05606L12.584 2.8429ZM14.6532 4.35946L14.8974 4.14629L15.1416 4.35946L14.8974 4.57262L14.6532 4.35946ZM16.8771 4.36836L17.1213 4.15519L17.3655 4.36836L17.1213 4.58152L16.8771 4.36836ZM12.4962 5.54672L12.7404 5.33356L12.9846 5.54672L12.7404 5.75989L12.4962 5.54672ZM11.497 6.39881L11.7412 6.18565L11.9854 6.39867L11.7412 6.61183L11.497 6.39881ZM11.1138 8.17662L11.358 7.96346L11.6022 8.17662L11.358 8.38979L11.1138 8.17662ZM13.2264 8.2916L13.4706 8.07844L13.7148 8.29175L13.4706 8.50477L13.2264 8.2916ZM15.3481 7.2954L15.5924 7.08223L15.8366 7.2954L15.5924 7.50856L15.3481 7.2954ZM16.3783 7.66144L16.6225 7.44827L16.8667 7.66144L16.6225 7.87446L16.3783 7.66144ZM17.7488 6.8395L17.9931 6.62647L18.2373 6.83964L17.9931 7.0528L17.7488 6.8395Z" fill="#FFAB41"/>
<path d="M18.0484 13.2842L18.374 13L18.6997 13.2842L18.374 13.5684L18.0484 13.2842ZM20.1742 14.0892L20.4998 13.805L20.8254 14.0892L20.4998 14.3734L20.1742 14.0892ZM17.4094 15.152L17.735 14.8678L18.0606 15.152L17.735 15.4363L17.4094 15.152ZM18.5342 15.9684L18.8598 15.6842L19.1855 15.9684L18.8598 16.2526L18.5342 15.9684ZM21.461 16.005L21.7866 15.7208L22.1122 16.005L21.7866 16.2892L21.461 16.005ZM23.3488 18.0363L23.6744 17.7521L24 18.0363L23.6744 18.3205L23.3488 18.0363ZM18.5127 17.7651L18.8383 17.4809L19.1639 17.7651L18.8383 18.0494L18.5127 17.7651ZM18.7457 18.806L19.0713 18.5218L19.3969 18.806L19.0713 19.0902L18.7457 18.806ZM16 19.7158L16.3256 19.4316L16.6512 19.7158L16.3256 20L16 19.7158ZM17.584 13.8429L17.8282 13.6297L18.0724 13.8429L17.8282 14.0561L17.584 13.8429ZM19.6532 15.3595L19.8974 15.1463L20.1416 15.3595L19.8974 15.5726L19.6532 15.3595ZM21.8771 15.3684L22.1213 15.1552L22.3655 15.3684L22.1213 15.5815L21.8771 15.3684ZM17.4962 16.5467L17.7404 16.3336L17.9846 16.5467L17.7404 16.7599L17.4962 16.5467ZM16.497 17.3988L16.7412 17.1856L16.9854 17.3987L16.7412 17.6118L16.497 17.3988ZM16.1138 19.1766L16.358 18.9635L16.6022 19.1766L16.358 19.3898L16.1138 19.1766ZM18.2264 19.2916L18.4706 19.0784L18.7148 19.2917L18.4706 19.5048L18.2264 19.2916ZM20.3481 18.2954L20.5924 18.0822L20.8366 18.2954L20.5924 18.5086L20.3481 18.2954ZM21.3783 18.6614L21.6225 18.4483L21.8667 18.6614L21.6225 18.8745L21.3783 18.6614ZM22.7488 17.8395L22.9931 17.6265L23.2373 17.8396L22.9931 18.0528L22.7488 17.8395Z" fill="#FFAB41"/>
<path d="M7.04843 5.28422L7.37405 5L7.69967 5.28422L7.37405 5.56844L7.04843 5.28422ZM9.17416 6.08922L9.49977 5.805L9.82539 6.08922L9.49977 6.37344L9.17416 6.08922ZM6.40937 7.15204L6.73498 6.86782L7.0606 7.15204L6.73498 7.43626L6.40937 7.15204ZM7.53423 7.96838L7.85984 7.68416L8.18546 7.96838L7.85984 8.2526L7.53423 7.96838ZM10.461 8.00498L10.7866 7.72076L11.1122 8.00498L10.7866 8.2892L10.461 8.00498ZM12.3488 10.0363L12.6744 9.75208L13 10.0363L12.6744 10.3205L12.3488 10.0363ZM7.51268 9.76514L7.8383 9.48092L8.16392 9.76514L7.8383 10.0494L7.51268 9.76514ZM7.74571 10.806L8.07133 10.5218L8.39695 10.806L8.07133 11.0902L7.74571 10.806ZM5 11.7158L5.32562 11.4316L5.65124 11.7158L5.32562 12L5 11.7158ZM6.58402 5.8429L6.82823 5.62973L7.07244 5.8429L6.82823 6.05606L6.58402 5.8429ZM8.65317 7.35946L8.89738 7.14629L9.14159 7.35946L8.89738 7.57262L8.65317 7.35946ZM10.8771 7.36836L11.1213 7.15519L11.3655 7.36836L11.1213 7.58152L10.8771 7.36836ZM6.4962 8.54672L6.74041 8.33356L6.98462 8.54672L6.74041 8.75989L6.4962 8.54672ZM5.49698 9.39881L5.74119 9.18565L5.9854 9.39867L5.74119 9.61183L5.49698 9.39881ZM5.1138 11.1766L5.35802 10.9635L5.60223 11.1766L5.35802 11.3898L5.1138 11.1766ZM7.22637 11.2916L7.47058 11.0784L7.7148 11.2917L7.47058 11.5048L7.22637 11.2916ZM9.34815 10.2954L9.59236 10.0822L9.83658 10.2954L9.59236 10.5086L9.34815 10.2954ZM10.3783 10.6614L10.6225 10.4483L10.8667 10.6614L10.6225 10.8745L10.3783 10.6614ZM11.7488 9.8395L11.9931 9.62647L12.2373 9.83964L11.9931 10.0528L11.7488 9.8395Z" fill="#FFAB41"/>
<path d="M3.24626 18.3358L3.15671 17.913L3.56357 17.7671L3.65312 18.1899L3.24626 18.3358ZM4.98497 16.8717L4.89542 16.4489L5.30227 16.303L5.39182 16.7258L4.98497 16.8717ZM4.566 19.804L4.47645 19.3811L4.8833 19.2352L4.97285 19.6581L4.566 19.804ZM5.82696 19.2194L5.73741 18.7966L6.14426 18.6507L6.23381 19.0735L5.82696 19.2194ZM7.28494 16.6814L7.19539 16.2585L7.60225 16.1126L7.6918 16.5355L7.28494 16.6814ZM9.97861 16.0225L9.88906 15.5997L10.2959 15.4538L10.3855 15.8767L9.97861 16.0225ZM7.38553 20.1136L7.29597 19.6908L7.70283 19.5449L7.79238 19.9678L7.38553 20.1136ZM8.40801 20.4173L8.31846 19.9944L8.72531 19.8486L8.81486 20.2714L8.40801 20.4173ZM7.86471 23.2583L7.77516 22.8355L8.18201 22.6896L8.27156 23.1124L7.86471 23.2583ZM3.50786 19.0136L3.4407 18.6965L3.74584 18.5871L3.813 18.9042L3.50786 19.0136ZM5.84039 17.9456L5.77323 17.6284L6.07837 17.519L6.14553 17.8362L5.84039 17.9456ZM6.93172 16.0078L6.86456 15.6907L7.1697 15.5813L7.23686 15.8984L6.93172 16.0078ZM5.82625 20.4077L5.75909 20.0905L6.06423 19.9811L6.13139 20.2983L5.82625 20.4077ZM6.0835 21.6954L6.01634 21.3783L6.32136 21.2688L6.38852 21.5859L6.0835 21.6954ZM7.44932 22.8962L7.38216 22.5791L7.6873 22.4697L7.75446 22.7868L7.44932 22.8962ZM8.57904 21.1074L8.51188 20.7903L8.81715 20.681L8.88418 20.998L8.57904 21.1074ZM8.74288 18.7691L8.67572 18.452L8.98086 18.3426L9.04802 18.6597L8.74288 18.7691ZM9.56445 18.0479L9.49729 17.7308L9.80243 17.6214L9.86946 17.9384L9.56445 18.0479ZM9.51445 16.4506L9.44741 16.1335L9.75255 16.0241L9.81971 16.3412L9.51445 16.4506Z" fill="#FFAB41"/>
</svg>
